<svg version="1.2" xmlns="http://www.w3.org/2000/svg" viewBox="0 0 128 128" width="128" height="128">
	<defs>
		<linearGradient id="g1" x2="1" gradientUnits="userSpaceOnUse" gradientTransform="matrix(102.701,-158.146,144.644,93.933,.526,143.829)">
			<stop offset="0" stop-color="#590a0a"/>
			<stop offset="1" stop-color="#ff8100"/>
		</linearGradient>
	</defs>
	<style>
		.s0 { fill: #ffff00;stroke: url(#g1);stroke-miterlimit:100;stroke-width: 8.6 } 
		.s1 { fill: #ffff00 } 
	</style>
	<g id="g3823">
		<path id="path3295-6-2-7-3" class="s0" d="m31.52 19.28h54.4l-13.77 23.85h-29.5l-12.29 21.29 12.46 21.59h57.54l-14.12 24.45h-55.89l-26.96-46.7 25.81-44.71z"/>
		<path id="path6337" class="s1" d="m29.2 19.05l42.95 24.08 13.77-23.85z"/>
		<path id="path6372" class="s1" d="m42.82 86.01l-12.47 24.45h55.89l14.12-24.45z"/>
		<path id="path6473" class="s1" d="m29.2 19.05l42.95 24.08h-29.5l-12.29 21.29 12.46 21.59-12.47 24.45-26.96-46.7z"/>
		<path id="path5111" class="s1" d="m72.15 43.13l-42.95-24.08-3.26 5.89 32.55 18.05z"/>
		<path id="path8399-8" class="s1" d="m41.78 41.39l43.27-23.85-13.77 23.85z"/>
		<path id="path8399" class="s1" d="m42.65 43.13l43.27-23.85-13.77 23.85z"/>
		<path id="path8568" class="s1" d="m3.39 63.76l39.26-20.63-12.29 21.29z"/>
		<path id="path11882" class="s1" d="m3.39 63.76l39.26-20.63-2.65-4.15-33.84 19.61z"/>
		<path id="path8467" class="s1" d="m42.65 43.13l-13.45-24.08 1.16 45.37z"/>
		<path id="path8916" class="s1" d="m42.82 86.01l43.42 24.45 14.12-24.45z"/>
		<path id="path11629" class="s1" d="m29.2 19.05l-3.26 5.89 0.31 39.29 4.11 0.19z"/>
		<path id="path12053" class="s1" d="m30.36 64.42l-20.59 10.32 20.58 35.72z"/>
		<path id="path13729" class="s1" d="m30.36 64.42v46.04l5.04-9.84 0.39-26.99z"/>
		<path id="path12347" class="s1" d="m9.77 74.74l20.59-10.32-4.11-0.19-17.86 8.53z"/>
		<path id="path13027" class="s1" d="m9.77 74.74l33.05 11.27-12.46-21.59z"/>
		<path id="path13350" class="s1" d="m42.82 86.01l-33.05-11.27 3.59 6.2 27.16 9.87z"/>
		<path id="path13525" class="s1" d="m42.82 86.01l43.42 24.45 5.21-9.26-27.95-15.43z"/>
		<path id="path14992-9" fill-rule="evenodd" class="s1" d="m115.2 86.14c-5.13 0-9.28-4.15-9.28-9.28 0-5.14 4.15-9.29 9.28-9.29 5.13 0 9.28 4.15 9.28 9.29 0 5.13-4.15 9.28-9.28 9.28z"/>
		<path id="path14992-9-0" fill-rule="evenodd" class="s1" d="m115.33 86.04c-5.14 0-9.29-4.14-9.29-9.28 0-5.13 4.15-9.28 9.29-9.28 5.13 0 9.28 4.15 9.28 9.28 0 5.14-4.15 9.28-9.28 9.28z"/>
		<path id="path14992-9-7" fill-rule="evenodd" class="s1" d="m91.43 64.36c-3.9 0-7.05-3.15-7.05-7.04 0-3.9 3.15-7.05 7.05-7.05 3.89 0 7.04 3.15 7.04 7.05 0 3.89-3.15 7.04-7.04 7.04z"/>
		<path id="path14992-9-0-5" fill-rule="evenodd" class="s1" d="m91.52 64.29c-3.89 0-7.04-3.15-7.04-7.04 0-3.9 3.15-7.05 7.04-7.05 3.9 0 7.05 3.15 7.05 7.05 0 3.89-3.15 7.04-7.05 7.04z"/>
		<path id="path14992-9-28" fill-rule="evenodd" class="s1" d="m100.93 33.75c-2 0-3.62-1.62-3.62-3.63 0-2.01 1.62-3.63 3.62-3.63 2.01 0 3.63 1.62 3.63 3.63 0 2.01-1.62 3.63-3.63 3.63z"/>
		<path id="path14992-9-0-9" fill-rule="evenodd" class="s1" d="m100.98 33.71c-2 0-3.62-1.62-3.62-3.63 0-2 1.62-3.62 3.62-3.62 2.01 0 3.63 1.62 3.63 3.62 0 2.01-1.62 3.63-3.63 3.63z"/>
	</g>
</svg>